<svg width="22" height="24" viewBox="0 0 22 24" fill="none" xmlns="http://www.w3.org/2000/svg">
<path d="M8.55566 14.0725H13.4445V22.2844H8.55566V14.0725Z" fill="#D9D9D9"/>
<path d="M21.2911 9.5912L11.8678 0.347007C11.7542 0.237053 11.619 0.149779 11.4701 0.0902212C11.3212 0.0306633 11.1614 0 11.0001 0C10.8387 0 10.679 0.0306633 10.53 0.0902212C10.3811 0.149779 10.2459 0.237053 10.1323 0.347007L0.709025 9.60293C0.481005 9.82356 0.300921 10.0855 0.17923 10.3735C0.057538 10.6614 -0.00333637 10.9697 0.000141 11.2805V21.1113C-0.000806001 21.7118 0.238196 22.2898 0.667928 22.7263C1.09766 23.1628 1.6854 23.4245 2.31013 23.4575H6.11121V12.8994C6.11121 12.5883 6.23998 12.2899 6.46919 12.0699C6.6984 11.8499 7.00927 11.7263 7.33343 11.7263H14.6667C14.9909 11.7263 15.3017 11.8499 15.5309 12.0699C15.7602 12.2899 15.8889 12.5883 15.8889 12.8994V23.4575H19.69C20.3147 23.4245 20.9025 23.1628 21.3322 22.7263C21.7619 22.2898 22.0009 21.7118 22 21.1113V11.2805C22.001 10.6505 21.7468 10.0447 21.2911 9.5912Z" fill="#D9D9D9"/>
</svg>
