<svg width="26" height="26" viewBox="0 0 26 26" fill="none" xmlns="http://www.w3.org/2000/svg">
<path d="M25.2402 17.5104C25.2402 15.1441 22.8739 13.0934 20.1921 12.3046C18.1414 14.6709 14.0398 16.0906 10.096 16.0906C9.93829 16.0906 9.62279 16.0906 9.46504 16.0906C9.46504 16.0906 9.46504 16.0906 9.30729 16.0906C9.14954 16.5639 9.14954 16.8794 9.14954 17.3526C9.14954 20.5077 12.6201 23.0317 17.0371 23.0317H17.9836C18.6146 23.8204 20.6654 25.2402 23.3472 25.2402C23.3472 25.2402 22.0851 24.6092 22.0851 22.4007C22.0851 21.4542 25.2402 19.5612 25.2402 17.5104Z" fill="#D9D9D9"/>
<path d="M20.5077 7.25656C20.5077 3.31278 16.0906 0 10.4116 0C4.73254 0 0 3.31278 0 7.25656C0 9.93833 3.15503 12.3046 4.73254 13.5666C4.73254 16.4061 2.52402 17.3526 2.52402 17.3526C6.1523 17.3526 8.20307 15.6174 9.14958 14.5131H10.4116C15.9329 14.6709 20.5077 11.3581 20.5077 7.25656Z" fill="#D9D9D9"/>
</svg>
