<svg width="28" height="31" viewBox="0 0 28 31" fill="none" xmlns="http://www.w3.org/2000/svg">
<path d="M14 13.8348C14.923 13.8348 15.8252 13.543 16.5926 12.9962C17.3601 12.4495 17.9582 11.6723 18.3114 10.7631C18.6646 9.85391 18.757 8.85343 18.577 7.88822C18.3969 6.923 17.9525 6.03639 17.2998 5.34051C16.6472 4.64462 15.8156 4.17072 14.9104 3.97873C14.0052 3.78674 13.0668 3.88527 12.2141 4.26188C11.3614 4.63849 10.6326 5.27626 10.1198 6.09453C9.60701 6.9128 9.33331 7.87483 9.33331 8.85895C9.33331 10.1786 9.82498 11.4443 10.7001 12.3774C11.5753 13.3105 12.7623 13.8348 14 13.8348Z" fill="#D9D9D9"/>
<path d="M21 26.2744C21.3094 26.2744 21.6061 26.1433 21.8249 25.91C22.0437 25.6767 22.1666 25.3603 22.1666 25.0304C22.1666 22.721 21.3062 20.5061 19.7747 18.8731C18.2431 17.2401 16.1659 16.3227 14 16.3227C11.834 16.3227 9.75682 17.2401 8.22527 18.8731C6.69373 20.5061 5.83331 22.721 5.83331 25.0304C5.83331 25.3603 5.95623 25.6767 6.17502 25.91C6.39381 26.1433 6.69056 26.2744 6.99998 26.2744H21Z" fill="#D9D9D9"/>
</svg>
